HIERARCHY
ROOT mixamorig:Hips
{
	OFFSET 0.000000 201.639420 0.000000
	CHANNELS 6 Xposition Yposition Zposition Xrotation Yrotation Zrotation
	JOINT mixamorig:Spine
	{
		OFFSET 0.006200 19.524994 -2.481800
		CHANNELS 3 Xrotation Yrotation Zrotation
		JOINT mixamorig:Spine1
		{
			OFFSET -0.000900 22.835007 -2.825400
			CHANNELS 3 Xrotation Yrotation Zrotation
			JOINT mixamorig:Spine2
			{
				OFFSET -0.020600 26.552490 -3.193300
				CHANNELS 3 Xrotation Yrotation Zrotation
				JOINT mixamorig:Neck
				{
					OFFSET -0.060000 30.701813 1.352200
					CHANNELS 3 Xrotation Yrotation Zrotation
					JOINT mixamorig:Head
					{
						OFFSET -0.087200 22.547607 3.670900
						CHANNELS 3 Xrotation Yrotation Zrotation
						JOINT mixamorig:HeadTop_End
						{
							OFFSET -0.830600 40.355194 7.893500
							CHANNELS 3 Xrotation Yrotation Zrotation
							End Site
							{
								OFFSET 0.000000 30.592346 0.000000
							}
						}
						JOINT mixamorig:RightEye
						{
							OFFSET -6.302100 18.118591 16.197100
							CHANNELS 3 Xrotation Yrotation Zrotation
							End Site
							{
								OFFSET 0.000000 30.592346 0.000000
							}
						}
						JOINT mixamorig:LeftEye
						{
							OFFSET 6.741500 18.382690 16.401899
							CHANNELS 3 Xrotation Yrotation Zrotation
							End Site
							{
								OFFSET 0.000000 30.592346 0.000000
							}
						}
					}
				}
				JOINT mixamorig:LeftShoulder
				{
					OFFSET 11.924900 18.230499 1.425400
					CHANNELS 3 Xrotation Yrotation Zrotation
					JOINT mixamorig:LeftArm
					{
						OFFSET 25.435989 -0.697632 -5.229300
						CHANNELS 3 Xrotation Yrotation Zrotation
						JOINT mixamorig:LeftForeArm
						{
							OFFSET 54.684776 0.000000 0.000000
							CHANNELS 3 Xrotation Yrotation Zrotation
							JOINT mixamorig:LeftHand
							{
								OFFSET 55.098175 0.000000 0.000000
								CHANNELS 3 Xrotation Yrotation Zrotation
								JOINT mixamorig:LeftHandMiddle1
								{
									OFFSET 23.369751 0.000000 0.000000
									CHANNELS 3 Xrotation Yrotation Zrotation
									JOINT mixamorig:LeftHandMiddle2
									{
										OFFSET 6.378677 0.000000 0.000000
										CHANNELS 3 Xrotation Yrotation Zrotation
										JOINT mixamorig:LeftHandMiddle3
										{
											OFFSET 6.148331 0.000000 0.000000
											CHANNELS 3 Xrotation Yrotation Zrotation
											JOINT mixamorig:LeftHandMiddle4
											{
												OFFSET 6.582504 0.000000 0.000000
												CHANNELS 3 Xrotation Yrotation Zrotation
												End Site
												{
													OFFSET -1.168900 6.395691 1.028606
												}
											}
										}
									}
								}
								JOINT mixamorig:LeftHandThumb1
								{
									OFFSET 7.235672 -3.848206 5.434273
									CHANNELS 3 Xrotation Yrotation Zrotation
									JOINT mixamorig:LeftHandThumb2
									{
										OFFSET 6.568451 -3.792297 3.792300
										CHANNELS 3 Xrotation Yrotation Zrotation
										JOINT mixamorig:LeftHandThumb3
										{
											OFFSET 6.063080 -3.500519 3.500518
											CHANNELS 3 Xrotation Yrotation Zrotation
											JOINT mixamorig:LeftHandThumb4
											{
												OFFSET 4.793182 -2.767334 2.767349
												CHANNELS 3 Xrotation Yrotation Zrotation
												End Site
												{
													OFFSET 0.101639 6.054260 1.275483
												}
											}
										}
									}
								}
								JOINT mixamorig:LeftHandIndex1
								{
									OFFSET 23.101074 -0.309540 4.992809
									CHANNELS 3 Xrotation Yrotation Zrotation
									JOINT mixamorig:LeftHandIndex2
									{
										OFFSET 6.226883 0.000000 0.000000
										CHANNELS 3 Xrotation Yrotation Zrotation
										JOINT mixamorig:LeftHandIndex3
										{
											OFFSET 6.094330 0.000000 0.000000
											CHANNELS 3 Xrotation Yrotation Zrotation
											JOINT mixamorig:LeftHandIndex4
											{
												OFFSET 5.482605 0.000000 0.000000
												CHANNELS 3 Xrotation Yrotation Zrotation
												End Site
												{
													OFFSET -1.427902 5.233032 0.797164
												}
											}
										}
									}
								}
								JOINT mixamorig:LeftHandRing1
								{
									OFFSET 22.299240 0.021149 -3.964172
									CHANNELS 3 Xrotation Yrotation Zrotation
									JOINT mixamorig:LeftHandRing2
									{
										OFFSET 6.321869 0.000000 0.000000
										CHANNELS 3 Xrotation Yrotation Zrotation
										JOINT mixamorig:LeftHandRing3
										{
											OFFSET 5.899796 0.000000 0.000000
											CHANNELS 3 Xrotation Yrotation Zrotation
											JOINT mixamorig:LeftHandRing4
											{
												OFFSET 6.517899 0.000000 0.000000
												CHANNELS 3 Xrotation Yrotation Zrotation
												End Site
												{
													OFFSET -1.637299 6.232208 0.980890
												}
											}
										}
									}
								}
								JOINT mixamorig:LeftHandPinky1
								{
									OFFSET 20.463791 -0.302338 -8.562233
									CHANNELS 3 Xrotation Yrotation Zrotation
									JOINT mixamorig:LeftHandPinky2
									{
										OFFSET 6.908646 0.000000 0.000000
										CHANNELS 3 Xrotation Yrotation Zrotation
										JOINT mixamorig:LeftHandPinky3
										{
											OFFSET 4.622849 0.000000 0.000000
											CHANNELS 3 Xrotation Yrotation Zrotation
											JOINT mixamorig:LeftHandPinky4
											{
												OFFSET 5.216080 0.000000 0.000000
												CHANNELS 3 Xrotation Yrotation Zrotation
												End Site
												{
													OFFSET -0.606308 5.116241 0.814926
												}
											}
										}
									}
								}
							}
						}
					}
				}
				JOINT mixamorig:RightShoulder
				{
					OFFSET -12.001300 18.284088 1.348900
					CHANNELS 3 Xrotation Yrotation Zrotation
					JOINT mixamorig:RightArm
					{
						OFFSET -25.308500 -0.751312 -5.164599
						CHANNELS 3 Xrotation Yrotation Zrotation
						JOINT mixamorig:RightForeArm
						{
							OFFSET -54.684429 0.000000 0.000000
							CHANNELS 3 Xrotation Yrotation Zrotation
							JOINT mixamorig:RightHand
							{
								OFFSET -55.150291 0.000000 0.000000
								CHANNELS 3 Xrotation Yrotation Zrotation
								JOINT mixamorig:RightHandMiddle1
								{
									OFFSET -23.317566 0.000000 0.000000
									CHANNELS 3 Xrotation Yrotation Zrotation
									JOINT mixamorig:RightHandMiddle2
									{
										OFFSET -6.378403 0.000000 0.000000
										CHANNELS 3 Xrotation Yrotation Zrotation
										JOINT mixamorig:RightHandMiddle3
										{
											OFFSET -6.148193 0.000000 0.000000
											CHANNELS 3 Xrotation Yrotation Zrotation
											JOINT mixamorig:RightHandMiddle4
											{
												OFFSET -6.583389 0.000000 0.000000
												CHANNELS 3 Xrotation Yrotation Zrotation
												End Site
												{
													OFFSET 1.171692 6.395905 1.029786
												}
											}
										}
									}
								}
								JOINT mixamorig:RightHandThumb1
								{
									OFFSET -7.190521 -3.860474 5.435846
									CHANNELS 3 Xrotation Yrotation Zrotation
									JOINT mixamorig:RightHandThumb2
									{
										OFFSET -6.567429 -3.791718 3.791708
										CHANNELS 3 Xrotation Yrotation Zrotation
										JOINT mixamorig:RightHandThumb3
										{
											OFFSET -6.062469 -3.500153 3.500166
											CHANNELS 3 Xrotation Yrotation Zrotation
											JOINT mixamorig:RightHandThumb4
											{
												OFFSET -4.792618 -2.767029 2.767022
												CHANNELS 3 Xrotation Yrotation Zrotation
												End Site
												{
													OFFSET -0.100327 6.053253 1.276754
												}
											}
										}
									}
								}
								JOINT mixamorig:RightHandIndex1
								{
									OFFSET -23.048981 -0.310791 4.992554
									CHANNELS 3 Xrotation Yrotation Zrotation
									JOINT mixamorig:RightHandIndex2
									{
										OFFSET -6.227539 0.000000 0.000000
										CHANNELS 3 Xrotation Yrotation Zrotation
										JOINT mixamorig:RightHandIndex3
										{
											OFFSET -6.095047 0.000000 0.000000
											CHANNELS 3 Xrotation Yrotation Zrotation
											JOINT mixamorig:RightHandIndex4
											{
												OFFSET -5.484772 0.000000 0.000000
												CHANNELS 3 Xrotation Yrotation Zrotation
												End Site
												{
													OFFSET 1.420593 5.237305 0.797056
												}
											}
										}
									}
								}
								JOINT mixamorig:RightHandRing1
								{
									OFFSET -22.246323 0.020569 -3.963762
									CHANNELS 3 Xrotation Yrotation Zrotation
									JOINT mixamorig:RightHandRing2
									{
										OFFSET -6.322128 0.000000 0.000000
										CHANNELS 3 Xrotation Yrotation Zrotation
										JOINT mixamorig:RightHandRing3
										{
											OFFSET -5.900024 0.000000 0.000000
											CHANNELS 3 Xrotation Yrotation Zrotation
											JOINT mixamorig:RightHandRing4
											{
												OFFSET -6.518356 0.000000 0.000000
												CHANNELS 3 Xrotation Yrotation Zrotation
												End Site
												{
													OFFSET 1.636398 6.232697 0.982186
												}
											}
										}
									}
								}
								JOINT mixamorig:RightHandPinky1
								{
									OFFSET -20.411011 -0.303314 -8.561701
									CHANNELS 3 Xrotation Yrotation Zrotation
									JOINT mixamorig:RightHandPinky2
									{
										OFFSET -6.907349 0.000000 0.000000
										CHANNELS 3 Xrotation Yrotation Zrotation
										JOINT mixamorig:RightHandPinky3
										{
											OFFSET -4.623840 0.000000 0.000000
											CHANNELS 3 Xrotation Yrotation Zrotation
											JOINT mixamorig:RightHandPinky4
											{
												OFFSET -5.218353 0.000000 0.000000
												CHANNELS 3 Xrotation Yrotation Zrotation
												End Site
												{
													OFFSET 0.602097 5.118835 0.816273
												}
											}
										}
									}
								}
							}
						}
					}
				}
			}
		}
	}
	JOINT mixamorig:LeftUpLeg
	{
		OFFSET 18.168400 -13.561905 -0.039000
		CHANNELS 3 Xrotation Yrotation Zrotation
		JOINT mixamorig:LeftLeg
		{
			OFFSET 0.577358 -80.825211 -3.695000
			CHANNELS 3 Xrotation Yrotation Zrotation
			JOINT mixamorig:LeftFoot
			{
				OFFSET -0.577356 -83.370262 -6.520700
				CHANNELS 3 Xrotation Yrotation Zrotation
				JOINT mixamorig:LeftToeBase
				{
					OFFSET 0.750401 -20.798306 25.135401
					CHANNELS 3 Xrotation Yrotation Zrotation
					JOINT mixamorig:LeftToe_End
					{
						OFFSET -0.000500 0.001200 19.917799
						CHANNELS 3 Xrotation Yrotation Zrotation
						End Site
						{
							OFFSET 0.000000 19.917805 0.000000
						}
					}
				}
			}
		}
	}
	JOINT mixamorig:RightUpLeg
	{
		OFFSET -18.162500 -13.585098 -0.041000
		CHANNELS 3 Xrotation Yrotation Zrotation
		JOINT mixamorig:RightLeg
		{
			OFFSET -0.595024 -80.945297 -3.631900
			CHANNELS 3 Xrotation Yrotation Zrotation
			JOINT mixamorig:RightFoot
			{
				OFFSET 0.595024 -83.218193 -6.561200
				CHANNELS 3 Xrotation Yrotation Zrotation
				JOINT mixamorig:RightToeBase
				{
					OFFSET -0.753601 -20.807106 25.115000
					CHANNELS 3 Xrotation Yrotation Zrotation
					JOINT mixamorig:RightToe_End
					{
						OFFSET 0.000299 0.001700 19.918200
						CHANNELS 3 Xrotation Yrotation Zrotation
						End Site
						{
							OFFSET 0.000000 19.918203 0.000000
						}
					}
				}
			}
		}
	}
}
MOTION
Frames: 4
Frame Time: 0.033333
0.164870 417.192444 2.709129 21.298575 -5.595406 -1.555652 -1.435755 1.526754 1.906981 -2.506197 1.165535 2.205174 -1.819003 1.187389 2.194080 -4.718706 -2.300120 -8.729778 -10.234747 0.425390 6.112787 0.000000 0.000000 0.000000 0.000000 0.000000 0.000000 0.000000 0.000000 0.000000 -23.256074 -17.360510 4.438200 -104.690175 -25.186302 -78.796566 -0.000003 -34.935851 -0.000004 -6.130087 10.583671 26.628005 3.627567 7.761660 -61.804995 2.618864 4.879856 -56.421406 1.548490 3.968935 -42.613670 0.000002 0.000002 0.000002 17.104684 6.007523 -24.051248 7.957481 19.750477 1.763880 32.412823 61.868441 0.656646 -0.000001 -0.000001 -0.000001 3.037009 7.447051 -61.475958 3.200268 5.217996 -63.020537 1.933635 4.349502 -47.920122 0.000001 -0.000001 -0.000002 3.415043 7.678196 -58.616902 1.835256 4.258864 -46.609307 0.917926 3.150169 -32.483813 -0.000003 0.000003 -0.000002 1.296080 6.036518 -46.210099 1.342612 3.733289 -39.548923 1.386743 3.786008 -40.221959 -0.000002 -0.000001 0.000002 -21.633560 42.087400 6.893395 -113.581237 60.821182 60.972450 -0.000005 22.648279 -0.000005 -35.992519 -16.021127 -26.887946 1.870944 -5.973274 52.867758 2.859956 -4.297142 67.277671 2.859960 -4.297120 67.277671 0.000000 -0.000006 -0.000001 27.889773 3.352967 20.332906 1.471582 -32.832545 -9.827328 -7.686801 -37.509872 -29.638295 -0.000001 0.000003 0.000002 1.664814 -5.806043 49.191511 2.223221 -3.971714 58.463633 2.223235 -3.971728 58.463639 0.000001 0.000001 -0.000002 1.719066 -5.851955 50.066721 2.716422 -4.234334 65.348170 2.966289 -4.339997 68.690051 -0.000001 0.000001 0.000001 0.820512 -4.849528 33.431495 2.017420 -3.838109 55.441803 1.585924 -3.502634 48.709754 -0.000001 -0.000003 0.000001 27.792977 5.653131 -3.085925 52.839518 -5.756273 -1.105533 20.522326 -4.307190 -4.323382 -0.033820 -0.000003 -0.000001 -0.000002 -0.000001 -0.000000 -27.233523 -3.612505 -2.189639 58.566379 3.424810 -6.484414 17.251509 -7.212463 14.639180 34.838982 0.000003 -0.000002 0.000001 0.000000 -0.000001 
0.159108 410.553040 17.959869 21.536871 -5.434190 0.125650 -1.571468 2.032888 0.504179 -2.738388 1.502770 0.694100 -1.765141 1.162106 1.264896 -4.717116 -2.300770 -8.754284 -10.212991 0.421321 6.092831 0.000000 0.000000 0.000000 0.000000 0.000000 0.000000 0.000000 0.000000 0.000000 -20.567272 -17.316580 10.494373 -108.130378 -25.597565 -79.140876 -0.000009 -27.235748 -0.000013 -9.887920 4.613959 27.034915 2.829434 7.347182 -53.480651 2.618861 4.879859 -56.421409 1.548486 3.968943 -42.613673 -0.000000 -0.000001 0.000001 16.475873 7.485803 -15.866956 7.957490 19.750491 1.763869 32.412820 61.868455 0.656657 0.000000 0.000001 0.000001 2.291483 6.950793 -53.163618 3.200261 5.218001 -63.020516 1.933636 4.349501 -47.920119 -0.000002 -0.000002 0.000001 2.630333 7.229642 -50.296096 1.835274 4.258881 -46.609317 0.917921 3.150163 -32.483813 -0.000000 -0.000001 0.000003 0.774676 5.283933 -37.942804 1.342761 3.733476 -39.551221 1.386642 3.785888 -40.220453 0.000000 -0.000001 0.000001 -19.040583 43.122075 4.809778 -105.841329 58.210663 50.392500 -0.000018 27.467666 0.000004 -36.408634 -16.740363 -27.394372 1.870944 -5.973288 52.867744 2.859946 -4.297138 67.277650 2.859954 -4.297116 67.277678 0.000002 0.000004 0.000000 27.889764 3.352964 20.332898 1.471612 -32.832590 -9.827317 -7.686819 -37.509848 -29.638295 0.000001 0.000001 0.000001 1.664802 -5.806052 49.191518 2.223227 -3.971717 58.463653 2.223231 -3.971729 58.463639 0.000002 -0.000001 -0.000002 1.719072 -5.851952 50.066728 2.716409 -4.234329 65.348142 2.966295 -4.339991 68.690038 -0.000001 0.000007 -0.000001 0.820515 -4.849529 33.431484 2.017393 -3.838130 55.441783 1.585924 -3.502636 48.709757 -0.000001 -0.000001 -0.000001 18.511507 2.832160 -0.995476 60.422988 -4.656710 -2.428880 18.701492 -3.416793 -5.645396 0.001547 0.000003 0.000004 -0.000001 0.000000 -0.000000 -22.387531 -3.807697 -2.264049 50.227825 0.522737 -8.475966 27.574930 -5.337183 14.241770 33.340667 -0.000002 0.000002 0.000002 0.000000 0.000001 
0.506233 402.931091 35.722412 21.917968 -5.527158 1.172451 -2.027424 2.019017 0.289348 -3.200363 1.421313 0.423692 -1.711941 1.238814 0.614938 -4.713098 -2.302244 -8.762618 -10.210678 0.420324 6.081282 0.000000 -0.000000 -0.000000 0.000000 -0.000000 -0.000000 0.000000 -0.000000 -0.000000 -19.325868 -17.167530 13.365037 -104.590803 -24.667751 -75.821636 0.000010 -33.664261 0.000014 -12.253925 8.086882 27.597712 2.829457 7.347193 -53.480637 2.618849 4.879866 -56.421416 1.548491 3.968936 -42.613666 -0.000000 0.000002 0.000001 16.475869 7.485816 -15.866939 7.957483 19.750482 1.763869 32.412830 61.868441 0.656646 -0.000002 0.000001 0.000001 2.291488 6.950798 -53.163618 3.200258 5.217989 -63.020509 1.933625 4.349509 -47.920119 -0.000002 -0.000002 0.000001 2.630350 7.229654 -50.296099 1.835248 4.258878 -46.609307 0.917916 3.150165 -32.483813 0.000000 -0.000001 0.000004 0.774712 5.283995 -37.942818 1.342757 3.733478 -39.551211 1.386638 3.785890 -40.220464 0.000003 -0.000001 0.000001 -16.175022 43.983048 2.367212 -102.768618 57.770580 45.515561 -0.000016 30.802603 0.000007 -38.723208 -18.314608 -28.987456 1.870935 -5.973273 52.867747 2.859944 -4.297133 67.277671 2.859964 -4.297125 67.277657 0.000000 -0.000003 -0.000001 27.889759 3.352959 20.332886 1.471586 -32.832583 -9.827344 -7.686804 -37.509845 -29.638281 0.000002 0.000002 -0.000001 1.664802 -5.806042 49.191504 2.223216 -3.971714 58.463633 2.223237 -3.971729 58.463639 -0.000001 -0.000002 0.000000 1.719052 -5.851948 50.066724 2.716422 -4.234331 65.348163 2.966302 -4.339978 68.690024 -0.000001 -0.000000 0.000002 0.820515 -4.849521 33.431508 2.017395 -3.838129 55.441800 1.585931 -3.502636 48.709767 0.000003 0.000002 -0.000001 16.005204 -0.499975 -0.279656 59.450035 -4.749250 -2.875655 20.799550 -2.352036 -6.644252 0.133309 0.000000 0.000000 -0.000002 0.000000 -0.000000 -18.747541 -4.361899 -2.770859 43.505020 0.465617 -8.200478 33.274332 -2.719614 14.408166 35.124197 0.000009 -0.000001 -0.000000 0.000001 0.000001 
0.738010 394.867554 55.672401 21.125712 -5.647555 1.933466 -2.410075 1.947897 -0.015753 -3.435926 1.128784 0.004135 -1.641899 1.126574 0.175180 -4.715106 -2.304251 -8.767494 -10.221979 0.419400 6.066380 0.000000 -0.000000 0.000000 0.000000 -0.000000 0.000000 0.000000 -0.000000 0.000000 -18.771380 -17.322430 14.255013 -102.917926 -24.294172 -74.815857 0.000015 -35.558296 0.000019 -12.751972 9.877733 27.395563 2.829444 7.347194 -53.480648 2.618873 4.879858 -56.421423 1.548493 3.968935 -42.613687 0.000002 0.000002 0.000003 16.475881 7.485819 -15.866931 7.957491 19.750493 1.763863 32.412823 61.868448 0.656648 0.000003 0.000001 -0.000000 2.291494 6.950795 -53.163621 3.200268 5.217993 -63.020509 1.933640 4.349502 -47.920119 -0.000001 0.000000 0.000001 2.630353 7.229658 -50.296109 1.835250 4.258871 -46.609307 0.917916 3.150160 -32.483816 0.000000 -0.000001 0.000001 0.774804 5.284104 -37.942852 1.342751 3.733482 -39.551218 1.386635 3.785897 -40.220471 -0.000002 -0.000002 0.000002 -13.177551 44.737599 -0.199450 -100.298159 56.182052 41.298845 0.000001 33.512866 -0.000011 -41.078096 -19.690454 -30.318226 1.870940 -5.973277 52.867734 2.859948 -4.297141 67.277678 2.859943 -4.297117 67.277671 0.000000 -0.000002 -0.000001 27.889752 3.352967 20.332908 1.471597 -32.832566 -9.827337 -7.686825 -37.509855 -29.638295 -0.000002 -0.000002 -0.000006 1.664809 -5.806058 49.191528 2.223243 -3.971696 58.463626 2.223223 -3.971730 58.463646 -0.000000 -0.000005 -0.000004 1.719059 -5.851963 50.066728 2.716428 -4.234334 65.348170 2.966305 -4.339979 68.690051 -0.000003 -0.000003 0.000001 0.820514 -4.849516 33.431498 2.017398 -3.838139 55.441800 1.585932 -3.502628 48.709757 0.000001 -0.000001 -0.000001 18.272146 -3.229498 0.287746 54.666481 -3.282650 -2.859769 24.486092 -1.941155 -6.136139 -0.024339 -0.000001 -0.000001 -0.000003 -0.000000 0.000000 -14.870999 -4.735370 -4.577187 39.825563 2.537328 -4.756447 36.384042 0.753644 11.555048 34.711312 -0.000001 -0.000002 0.000002 -0.000001 0.000002 
